<svg width="24" height="24" viewBox="0 0 24 24" fill="none" xmlns="http://www.w3.org/2000/svg">
<path d="M19.5 7.8V16.2C19.5 16.6774 19.3055 17.1352 18.9593 17.4728C18.6131 17.8104 18.1435 18 17.6538 18H5.34615C4.85652 18 4.38695 17.8104 4.04073 17.4728C3.6945 17.1352 3.5 16.6774 3.5 16.2V7.8M19.5 7.8C19.5 7.32261 19.3055 6.86477 18.9593 6.52721C18.6131 6.18964 18.1435 6 17.6538 6H5.34615C4.85652 6 4.38695 6.18964 4.04073 6.52721C3.6945 6.86477 3.5 7.32261 3.5 7.8M19.5 7.8V7.9944C19.5 8.30172 19.4194 8.60392 19.2657 8.87224C19.112 9.14055 18.8904 9.36603 18.6221 9.5272L12.4682 13.2192C12.1771 13.394 11.8419 13.4866 11.5 13.4866C11.1581 13.4866 10.8229 13.394 10.5318 13.2192L4.37795 9.528C4.10958 9.36683 3.888 9.14135 3.73431 8.87304C3.58063 8.60472 3.49997 8.30252 3.5 7.9952V7.8" stroke="#F5F7FA" stroke-linecap="round" stroke-linejoin="round"/>
</svg>
